<svg xmlns="http://www.w3.org/2000/svg" xmlns:svg="http://www.w3.org/2000/svg" id="svg24" width="64" height="64" version="1.1"><metadata id="metadata30"/><path style="fill:#ccc;stroke-width:1.425" id="path4" d="M 31.999999,3.5 C 20.981919,3.5 12.05,12.431919 12.05,23.450001 12.05,43.4 23.45,60.5 31.999999,60.5 40.549999,60.5 51.95,43.4 51.95,23.450001 51.95,12.431919 43.01808,3.5 31.999999,3.5 Z M 16.998534,33.427783 c 0.239128,0.01077 0.555888,0.0552 0.976905,0.116893 3.529715,0.516998 6.349546,2.399703 8.413623,5.619288 1.105216,1.723853 2.952442,6.373838 2.744238,6.90791 -0.07573,0.193985 -0.231324,0.215007 -1.040919,0.136372 -3.304909,-0.322915 -6.587663,-1.973879 -8.666894,-4.358497 -1.932672,-2.216476 -2.812595,-4.282416 -3.061522,-7.180663 -0.0864,-1.006057 -0.0828,-1.27394 0.634569,-1.241309 z m 30.002931,0 c 0.717377,-0.03263 0.720975,0.235252 0.63457,1.241309 -0.248924,2.898247 -1.12885,4.964187 -3.061522,7.180663 -2.079231,2.384618 -5.361985,4.035582 -8.666896,4.358497 -0.809593,0.07863 -0.965192,0.05761 -1.040917,-0.136372 -0.208203,-0.534072 1.639023,-5.184057 2.744237,-6.90791 2.064079,-3.219585 4.88391,-5.10229 8.413624,-5.619289 0.421016,-0.06169 0.737777,-0.106019 0.976904,-0.116892 z"/></svg>