<svg xmlns="http://www.w3.org/2000/svg" xmlns:svg="http://www.w3.org/2000/svg" id="svg24" width="64" height="64" version="1.1"><metadata id="metadata30"/><g id="g2310" transform="matrix(1.0155565,0,0,1.0155565,-0.89254967,0.02913484)"><path style="fill:#ccc;fill-opacity:.843137;stroke-width:1.40315" id="path1325" d="m 33.443359,3.4375 a 28.063015,28.063015 0 0 0 -20.4375,7.75 28.063015,28.063015 0 0 0 -0.910156,39.677734 28.063015,28.063015 0 0 0 39.675781,0.910157 28.063015,28.063015 0 0 0 0.91211,-39.675782 A 28.063015,28.063015 0 0 0 33.443359,3.4375 Z M 17.197266,14.601562 h 30.384765 c 0.935186,0 1.6875,0.752315 1.6875,1.6875 v 6.751954 c 0,0.935185 -0.752314,1.6875 -1.6875,1.6875 H 17.197266 c -0.935186,0 -1.689452,-0.752315 -1.689454,-1.6875 v -6.751954 c 0,-0.935185 0.754268,-1.687498 1.689454,-1.6875 z m 0,13.503907 h 16.880859 c 0.935185,0 1.6875,0.752314 1.6875,1.6875 v 16.880859 c 0,0.935185 -0.752315,1.6875 -1.6875,1.6875 H 17.197266 c -0.935186,0 -1.689453,-0.752315 -1.689454,-1.6875 V 29.792969 c 0,-0.935186 0.754268,-1.6875 1.689454,-1.6875 z m 23.632812,0 h 6.751953 c 0.935186,0 1.6875,0.752314 1.6875,1.6875 v 16.880859 c 0,0.935185 -0.752314,1.6875 -1.6875,1.6875 h -6.751953 c -0.935185,0 -1.689453,-0.752315 -1.689453,-1.6875 V 29.792969 c 0,-0.935186 0.754268,-1.6875 1.689453,-1.6875 z"/></g></svg>