<svg xmlns="http://www.w3.org/2000/svg" xmlns:svg="http://www.w3.org/2000/svg" id="svg24" width="64" height="64" version="1.1"><metadata id="metadata30"/><path style="fill:#ccc;stroke-width:1.425" id="circle4" d="M 32.000001,3.4999987 A 28.500001,28.500001 0 0 0 4.8192382,23.45 H 20.6 L 23.450001,16.325 26.3,23.45 h 11.400002 l 2.85,-7.125 2.849999,7.125 H 59.152932 A 28.500001,28.500001 0 0 0 32.000001,3.4999987 Z M 59.152932,23.45 A 28.500001,28.500001 0 0 1 59.851515,26.107958 28.500001,28.500001 0 0 0 59.152932,23.45 Z m -54.3336938,0 A 28.500001,28.500001 0 0 0 4.2347657,25.679346 28.500001,28.500001 0 0 1 4.8192382,23.45 Z m -0.7264153,2.791552 a 28.500001,28.500001 0 0 0 -0.3228522,2.073487 28.500001,28.500001 0 0 1 0.3228522,-2.073487 z m 55.8366211,0.214306 a 28.500001,28.500001 0 0 1 0.32842,2.120802 28.500001,28.500001 0 0 0 -0.32842,-2.120802 z M 3.6558596,29.058154 a 28.500001,28.500001 0 0 0 -0.091841,1.672705 28.500001,28.500001 0 0 1 0.091841,-1.672705 z M 60.363625,29.447802 A 28.500001,28.500001 0 0 1 60.5,32 28.500001,28.500001 0 0 0 60.363625,29.447802 Z M 24.875,30.575 v 5.700001 h 2.85 V 30.575 Z m 11.400001,0 v 5.700001 h 2.850001 V 30.575 Z M 3.5000001,32 A 28.500001,28.500001 0 0 0 3.6363723,34.552199 28.500001,28.500001 0 0 1 3.5000001,32 Z m 56.9359879,1.269141 a 28.500001,28.500001 0 0 1 -0.09185,1.672705 28.500001,28.500001 0 0 0 0.09185,-1.672705 z M 3.7421389,35.42334 A 28.500001,28.500001 0 0 0 4.0705573,37.544141 28.500001,28.500001 0 0 1 3.7421389,35.42334 Z m 56.4878931,0.261622 a 28.500001,28.500001 0 0 1 -0.322853,2.073485 28.500001,28.500001 0 0 0 0.322853,-2.073485 z m -56.0815458,2.20708 a 28.500001,28.500001 0 0 0 0.698585,2.657959 28.500001,28.500001 0 0 1 -0.698585,-2.657959 z m 0.698585,2.657959 a 28.500001,28.500001 0 0 0 27.1529298,19.95 28.500001,28.500001 0 0 0 27.180763,-19.95 H 36.275001 l -4.275,5.7 -4.275001,-5.7 z m 54.3336928,0 a 28.500001,28.500001 0 0 0 0.584472,-2.229346 28.500001,28.500001 0 0 1 -0.584472,2.229346 z"/></svg>