<svg xmlns="http://www.w3.org/2000/svg" xmlns:svg="http://www.w3.org/2000/svg" id="svg24" width="64" height="64" version="1.1"><metadata id="metadata30"/><g id="g840" transform="matrix(1.4249304,0,0,1.4249304,-2.1913721,-2.1983296)" style="fill:#ccc"><path id="path2-8" d="m 25.480469,4 c -5.2381,0 -9.484375,3.4776 -9.484375,9 0,5.5224 4.5976,8.643 9,10 4.3046,1.3268 9.96875,5.4776 9.96875,11 0,5.5224 -4.246275,10 -9.484375,10 10.225,0 18.515625,-8.9552 18.515625,-20 0,-11.0448 -8.290325,-20 -18.515625,-20 z M 26,10 a 4,4 0 0 1 4,4 4,4 0 0 1 -4,4 4,4 0 0 1 -4,-4 4,4 0 0 1 4,-4 z" style="fill:#ccc"/><path id="path4" d="m 22.509766,4 c -10.225,0 -18.5156254,8.955 -18.5156254,20 0,11.045 8.2903254,20 18.5156254,20 5.2381,0 9.484375,-3.4776 9.484375,-9 0,-5.5224 -4.5976,-8.643 -9,-10 -4.3046,-1.3268 -9.96875,-5.4776 -9.96875,-11 0,-5.5224 4.246275,-10 9.484375,-10 z M 22,32 a 4,4 0 0 1 4,4 4,4 0 0 1 -4,4 4,4 0 0 1 -4,-4 4,4 0 0 1 4,-4 z" style="fill:#ccc"/></g></svg>