<svg xmlns="http://www.w3.org/2000/svg" xmlns:svg="http://www.w3.org/2000/svg" id="svg24" width="64" height="64" version="1.1"><metadata id="metadata30"/><g id="g3295" transform="matrix(1.425,0,0,1.4221049,-2.2,-2.1305176)"><path style="fill:#ccc" id="path4-8" d="M 24,4 C 13.32,4 4.6491094,12.288547 4.0371094,22.810547 L 4,22.845703 V 40 c 0,2.216 1.784,4 4,4 h 16.154297 l 0.002,-0.0039 C 35.16325,43.912194 44,35.0279 44,24 44,12.92 35.08,4 24,4 Z m -10.5,8.5 10,2 7.5,13 L 23.001953,33 21.5,25.5 l 2,10 -5.5,4 3.5,-14 z M 33.115234,21 35,25 31.910156,24.517578 Z"/><path style="fill:#fff" id="path8" d="m 27.206,21 h 5.909825 L 31,27.5 Z"/><path style="opacity:.1;fill:#fff" id="path14" d="M 24,4 C 13.32,4 4.6491094,12.288547 4.0371094,22.810547 L 4,22.845703 v 1 l 0.037109,-0.03516 C 4.6491094,13.288547 13.32,5 24,5 34.912126,5 43.72361,13.653863 43.988281,24.5 43.992346,24.333296 44,24.167719 44,24 44,12.92 35.08,4 24,4 Z"/></g></svg>