<svg xmlns="http://www.w3.org/2000/svg" xmlns:svg="http://www.w3.org/2000/svg" id="svg24" width="64" height="64" version="1.1"><metadata id="metadata30"/><path style="fill:#ccc;stroke-width:1.425" id="circle4" d="M 32.000001,3.5 A 28.500001,28.500001 0 0 0 3.5,32.000001 28.500001,28.500001 0 0 0 32.000001,60.5 28.500001,28.500001 0 0 0 60.5,32.000001 28.500001,28.500001 0 0 0 32.000001,3.5 Z m 0,8.550001 a 19.95,19.95 0 0 1 19.949998,19.95 19.95,19.95 0 0 1 -19.949998,19.949998 19.95,19.95 0 0 1 -19.95,-19.949998 19.95,19.95 0 0 1 19.95,-19.95 z M 25.445558,22.025 C 21.20833,22.0265 17.75,25.208372 17.75,29.15 c 0,2.051432 0.928898,3.922003 2.418604,5.224073 L 31.807958,44.825001 43.831396,34.374073 C 45.321591,33.072571 46.25,31.202002 46.25,29.15 c 0,-3.942499 -3.459831,-7.125 -7.698341,-7.125 -2.793098,0 -5.210075,1.369921 -6.551658,3.442823 C 30.656835,23.39562 28.240246,22.025925 25.448342,22.025 Z"/></svg>