<svg xmlns="http://www.w3.org/2000/svg" xmlns:svg="http://www.w3.org/2000/svg" id="svg24" width="64" height="64" version="1.1"><metadata id="metadata30"/><path style="fill:#ccc;stroke-width:1.425" id="circle4" d="M 32,3.4999995 A 28.5,28.5 0 0 0 3.5,32 28.5,28.5 0 0 0 32,60.500001 28.5,28.5 0 0 0 60.5,32.000001 28.5,28.5 0 0 0 32,3.4999995 Z m 0,4.275001 A 24.225,24.225 0 0 1 49.138966,14.9 H 38.025636 L 29.149999,31.863624 38.025636,49.1 H 49.136183 A 24.225,24.225 0 0 1 32,56.225 24.225,24.225 0 0 1 7.775,32 24.225,24.225 0 0 1 32,7.7750005 Z M 43.4,24.875 V 32 L 48.3875,28.4375 53.375,24.875 V 32 39.125001 L 48.3875,35.562501 43.4,32 v 7.125001 L 38.412501,35.562501 33.425001,32 l 4.9875,-3.5625 z"/></svg>