<svg xmlns="http://www.w3.org/2000/svg" id="svg7384" width="16" height="16" version="1.1"><metadata id="metadata90"/><title id="title9167">Gnome Symbolic Icon Theme</title><g id="layer9" transform="translate(-381 -337)"><path id="path9555" d="m389 342.02c-1.6459 0-2.9825 1.3366-2.9825 2.9825s1.3366 2.9825 2.9825 2.9825 2.9825-1.3366 2.9825-2.9825-1.3366-2.9825-2.9825-2.9825z" style="color:#bebebe;text-indent:0;text-transform:none;fill:#bebebe"/><path id="path9557" d="m388.97 338.06c-3.8578 0-7 3.1422-7 7s3.1422 7 7 7 7-3.1422 7-7-3.1422-7-7-7zm0 1c3.3212 0 6.0312 2.6788 6.0312 6s-2.7101 6-6.0312 6c-3.3212 0-6-2.6788-6-6s2.6788-6 6-6z" style="block-progression:tb;text-indent:0;color:#bebebe;text-transform:none;fill:#bebebe"/></g></svg>