<svg xmlns="http://www.w3.org/2000/svg" xmlns:svg="http://www.w3.org/2000/svg" id="svg24" width="64" height="64" version="1.1"><metadata id="metadata30"/><path style="fill:#ccc;stroke-width:2.85" id="circle4" d="M 32.000001,3.5000005 A 28.499999,28.499999 0 0 0 3.5000002,32 28.499999,28.499999 0 0 0 32.000001,60.5 28.499999,28.499999 0 0 0 60.5,32 28.499999,28.499999 0 0 0 32.000001,3.5000005 Z m -1.425,5.7 c 1.12418,0.0098 2.246089,0.102931 3.356544,0.278321 -1.573973,0.398826 -3.356544,1.3750935 -3.356544,3.8519515 0,4.419268 5.699999,4.419728 5.699999,4.419728 0,0 2.850001,0 2.850001,2.849999 0,2.850001 -2.850001,2.850001 -2.850001,2.850001 H 24.875001 c 0,0 -5.7,-0.0868 -5.7,4.230468 0,4.317251 5.7,4.319531 5.7,4.319531 h 8.55 c 0,0 5.7,0.135717 5.7,4.341796 0,4.206064 -5.7,4.208203 -5.7,4.208203 h -5.7 c 0,0 -2.85,0 -2.85,2.850001 0,2.849999 2.85,2.849999 2.85,2.849999 h 2.85 c 0,0 2.85,0 2.85,1.553028 0,1.296973 -2.85,1.296973 -2.85,1.296973 h -5.7 c 0,0 -2.85,-0.0012 -2.85,1.614257 0,1.23459 2.85,1.235742 2.85,1.235742 h 5.7 c 0,0 2.85,0.314203 2.85,1.58086 0,1.266716 -2.85,1.269141 -2.85,1.269141 C 17.982908,54.8 7.7749997,44.592091 7.7749997,31.999999 7.7749997,19.407907 17.982908,9.2000005 30.575001,9.2000005 Z"/></svg>