<svg xmlns="http://www.w3.org/2000/svg" xmlns:svg="http://www.w3.org/2000/svg" id="svg24" width="64" height="64" version="1.1"><metadata id="metadata30"/><g style="fill:#ccc" id="layer1" transform="matrix(3.4369578,0,0,3.4369578,2.9004247,-959.67683)"><g style="fill:#ccc" id="g83628" transform="matrix(0.05709354,0,0,0.05703853,9.6034111,278.29442)"><path id="path83614-2" d="M -19.91572,34.266877 A 145.24027,145.24026 0 0 0 -165.14936,179.50844 145.24027,145.24026 0 0 0 -19.91572,324.74997 145.24027,145.24026 0 0 0 125.32893,179.50844 145.24027,145.24026 0 0 0 -19.91572,34.266877 Z m -11.619568,42.458951 c 34.0492079,0 58.054503,12.197498 77.408799,39.463132 V 81.384737 H 72.402654 V 277.62109 H 45.873511 v -34.44076 c -20.78794,27.98315 -42.2828611,39.11069 -75.615249,39.11069 -60.213342,0 -105.016272,-43.7653 -105.016272,-102.24293 0,-58.83637 44.443023,-103.322262 103.222722,-103.322262 z m 0.71522,24.395992 c -42.651112,0 -77.056672,34.43875 -77.056672,77.131 0,44.84483 34.04393,79.64221 78.487109,79.64221 42.292704,0 75.263142,-34.80372 75.263142,-79.28974 0,-43.76856 -33.684037,-77.48347 -76.693579,-77.48347 z" style="fill:#ccc;fill-opacity:1;stroke:none;stroke-width:11.2693;stroke-miterlimit:4;stroke-dasharray:none;stroke-dashoffset:0;stroke-opacity:1"/></g></g></svg>