<svg xmlns="http://www.w3.org/2000/svg" xmlns:svg="http://www.w3.org/2000/svg" id="svg24" width="64" height="64" version="1.1"><metadata id="metadata30"/><path style="opacity:1;fill:#ccc;stroke-width:2.03367" id="path8" d="M 31.907086,3.5291852 A 4.0677519,4.0677519 0 0 0 29.090924,4.7207911 L 4.6908283,29.120888 a 4.0677519,4.0677519 0 0 0 0,5.75148 L 29.094898,59.280412 a 4.0677519,4.0677519 0 0 0 5.751479,0 L 53.991499,40.135291 H 42.484566 L 31.970636,50.64922 13.318045,31.99663 31.966665,13.348011 42.484566,23.865911 H 53.991499 L 34.842406,4.7207911 a 4.0677519,4.0677519 0 0 0 -2.93532,-1.1916059 z m 4.130896,24.4040718 a 4.0677519,4.0677519 0 1 0 0,8.13469 h 20.336726 a 4.0677519,4.0677519 0 1 0 0,-8.13469 z"/></svg>