<svg xmlns="http://www.w3.org/2000/svg" xmlns:svg="http://www.w3.org/2000/svg" id="svg24" width="64" height="64" version="1.1"><metadata id="metadata30"/><g id="g3472" transform="matrix(1.425,0,0,1.425,-2.2,-2.2)"><path style="fill:#ccc" id="rect2" d="M 24,4 C 12.92,4 4,12.92 4,24 4,35.08 12.92,44 24,44 35.08,44 44,35.08 44,24 44,12.92 35.08,4 24,4 Z m 0.572266,6.005859 a 14,14 0 0 1 7.794922,2.775391 l -2.140626,2.140625 a 11,11 0 0 0 -14.007812,1.28125 11,11 0 0 0 0,15.554687 11,11 0 0 0 15.556641,0 11,11 0 0 0 2.578125,-11.423828 l -4.148438,2.394532 -2,-3.462891 6.927734,-4 0.02344,0.382813 0.04102,-0.04102 a 14,14 0 0 1 -1.300782,18.273437 14,14 0 0 1 -19.798828,0 14,14 0 0 1 0,-19.800781 14,14 0 0 1 10.47461,-4.074219 z"/></g></svg>