<svg xmlns="http://www.w3.org/2000/svg" xmlns:svg="http://www.w3.org/2000/svg" id="svg9" width="16" height="16" version="1.1"><metadata id="metadata13"/><defs id="defs3"><style id="current-color-scheme" type="text/css">.ColorScheme-Text{color:#444}</style></defs><g id="g822" transform="translate(-0.50011111,0.49988889)"><path id="path5" d="M 3,0 C 3,0 2,0 2,1 v 12 c 0,1 1,1 1,1 H 9.1934 C 7.7753,13.463 6.75,12.096 6.75,10.5 c 0,-2.0556 1.6944,-3.75 3.75,-3.75 1.596,0 2.963,1.0253 3.5,2.4434 V 4 L 10,0 Z" class="ColorScheme-Text" style="fill:#ccc"/><path id="path7" d="m 11.5,12.5 2.278,2.278 c 0,0 0.5,0.5 1,0 0.5,-0.5 0,-1 0,-1 L 12.5,11.5 Z m -3.75,-2 C 7.75,12 9,13.25 10.5,13.25 12,13.25 13.25,12 13.25,10.5 13.25,9 12,7.75 10.5,7.75 9,7.75 7.75,9 7.75,10.5 Z M 10.5,8.75 c 1,0 1.75,0.75 1.75,1.75 0,1 -0.75,1.75 -1.75,1.75 -1,0 -1.75,-0.75 -1.75,-1.75 0,-1 0.75,-1.75 1.75,-1.75 z" class="ColorScheme-Text" style="fill:#ccc"/></g></svg>