<svg xmlns="http://www.w3.org/2000/svg" xmlns:svg="http://www.w3.org/2000/svg" id="svg9" width="24" height="24" version="1.1" viewBox="0 0 24 24"><metadata id="metadata13"/><defs id="defs3"><style id="current-color-scheme" type="text/css">.ColorScheme-Text{color:#444}</style><style id="current-color-scheme-1" type="text/css">.ColorScheme-Text{color:#444}</style></defs><g id="g13" style="fill:#000"><path style="color:#444;fill:#000;stroke-width:1.62201428" id="path5" d="M 0.77985729,0.77985729 V 4.0238858 H 17 V 0.77985729 Z m 0,6.48805711 V 10.511943 H 11.627078 c 1.248983,-0.9997935 2.837551,-1.6220144 4.561915,-1.6220144 0.278629,0 0.540504,0.071044 0.811007,0.1013759 V 7.2679144 Z m 0,6.4880566 V 17 H 8.9913045 c -0.030332,-0.270503 -0.1013759,-0.532378 -0.1013759,-0.811007 0,-0.860365 0.1828173,-1.666458 0.4561916,-2.433022 z" class="ColorScheme-Text"/><path id="path18" d="m 15.356548,10.509221 -0.138499,1.654976 a 4.9368772,4.9368772 0 0 0 -1.442844,0.834501 l -1.504204,-0.708274 -1.570825,2.720892 1.365705,0.948456 a 4.9368772,4.9368772 0 0 0 -0.07538,0.832747 4.9368772,4.9368772 0 0 0 0.07188,0.836254 l -1.3622,0.944949 1.570825,2.720893 1.500698,-0.70652 a 4.9368772,4.9368772 0 0 0 1.446351,0.829241 l 0.134993,1.660234 h 3.141649 l 0.138499,-1.654975 a 4.9368772,4.9368772 0 0 0 1.442844,-0.8345 l 1.504205,0.708273 1.570825,-2.720893 -1.365707,-0.948455 a 4.9368772,4.9368772 0 0 0 0.07538,-0.832748 4.9368772,4.9368772 0 0 0 -0.07188,-0.836253 l 1.3622,-0.94495 -1.570825,-2.720892 -1.500698,0.706521 a 4.9368772,4.9368772 0 0 0 -1.446345,-0.829241 l -0.134993,-1.660236 z m 1.570825,4.48807 a 1.7952281,1.7952281 0 0 1 1.795228,1.795228 1.7952281,1.7952281 0 0 1 -1.795228,1.795228 1.7952281,1.7952281 0 0 1 -1.795228,-1.795228 1.7952281,1.7952281 0 0 1 1.795228,-1.795228 z" class="ColorScheme-Text" style="color:#444;fill:#000;stroke-width:.897614"/></g></svg>