<svg xmlns="http://www.w3.org/2000/svg" xmlns:svg="http://www.w3.org/2000/svg" id="svg24" width="64" height="64" version="1.1"><metadata id="metadata30"/><path id="path2-3" d="M 32.787647,3.5 C 16.998646,3.5 4.2876466,16.211 4.2876466,31.999999 4.2876466,47.789 16.998646,60.5 32.787647,60.5 c 9.705246,0 18.247215,-4.802843 23.390036,-12.170948 L 32.787647,31.999999 59.712353,22.601124 C 55.846328,11.456768 45.280622,3.5 32.787647,3.5 Z m 2.849999,8.55 a 4.275,4.275 0 0 1 4.275,4.274999 A 4.275,4.275 0 0 1 35.637646,20.6 4.275,4.275 0 0 1 31.362647,16.324999 4.275,4.275 0 0 1 35.637646,12.05 Z" style="fill:#ccc;stroke-width:1.425"/></svg>