<svg xmlns="http://www.w3.org/2000/svg" xmlns:svg="http://www.w3.org/2000/svg" id="svg24" width="64" height="64" version="1.1"><metadata id="metadata30"/><path style="fill:#ccc;stroke-width:1.425" id="path4" d="M 20.6,4.9249996 C 10.624999,7.7750003 3.5143925,19.236274 3.5,30.574999 3.5,46.315549 16.259451,59.075 32,59.075 47.74055,59.075 60.5,46.315549 60.5,30.574999 60.495762,19.209198 53.374999,7.7750003 43.399999,4.9249996 44.393225,5.9559874 44.82215,6.6057873 44.825,7.7750003 c 0,3.9344247 -5.741326,7.1249987 -12.825,7.1249987 -7.083676,0 -12.825001,-3.190574 -12.825001,-7.1249987 0.0029,-1.152256 0.45885,-1.8302701 1.425001,-2.8500007 z M 19.174999,19.174999 C 26.299999,20.6 32,26.3 32,26.3 c 0,0 7.124999,-5.7 12.825,-7.125001 7.125,0 12.783251,11.619873 12.783251,11.619873 0.02281,0.40185 0.03748,0.803277 0.04176,1.205127 0,14.165925 -11.484074,25.65 -25.649999,25.65 -14.165925,0 -25.6500004,-11.484075 -25.6500004,-25.65 0,0 4.2749994,-12.825 12.8250004,-12.825 z m -0.02228,9.975 a 5.7,7.125 0 0 0 -5.471775,5.254688 L 19.174992,37.7 h -5.577538 a 5.7,7.125 0 0 0 2.318408,4.403027 5.7,0.7125 0 0 1 3.25913,-0.128022 5.7,0.7125 0 0 1 3.270265,0.130817 5.7,7.125 0 0 0 2.429736,-5.830812 5.7,7.125 0 0 0 -5.700001,-7.125002 5.7,7.125 0 0 0 -0.02228,0 z m 25.650002,0 a 5.7,7.125 0 0 0 -5.471778,5.254688 L 44.824993,37.7 h -5.577539 a 5.7,7.125 0 0 0 2.318409,4.403027 5.7,0.7125 0 0 1 3.25913,-0.128022 5.7,0.7125 0 0 1 3.270263,0.130817 5.7,7.125 0 0 0 2.429737,-5.830812 5.7,7.125 0 0 0 -5.7,-7.125002 5.7,7.125 0 0 0 -0.02228,0 z"/></svg>