<svg xmlns="http://www.w3.org/2000/svg" xmlns:svg="http://www.w3.org/2000/svg" id="svg24" width="64" height="64" version="1.1"><metadata id="metadata30"/><g id="g93" transform="matrix(1.4449367,0,0,1.4449367,-2.6522693,-5.4801958)" style="fill:#ccc"><path id="path16-3" d="M 23.986328,7.8769531 A 19.97002,19.989605 0 0 0 4.2578125,24.869141 H 43.705078 A 19.97002,19.989605 0 0 0 23.986328,7.8769531 Z m 0,2.3398439 a 14.47297,14.487164 0 0 1 14.289063,12.3125 H 9.6875 a 14.47297,14.487164 0 0 1 14.298828,-12.3125 z" style="fill:#ccc"/><path id="path16-3-5" d="M 23.987157,44.001023 A 19.97002,19.989605 0 0 1 4.2586421,27.008835 H 43.705907 a 19.97002,19.989605 0 0 1 -19.71875,16.992188 z m 0,-2.339844 A 14.47297,14.487164 0 0 0 38.27622,29.348679 H 9.6883297 a 14.47297,14.487164 0 0 0 14.2988273,12.3125 z" style="fill:#ccc"/></g></svg>