<svg xmlns="http://www.w3.org/2000/svg" xmlns:svg="http://www.w3.org/2000/svg" id="svg9" width="24" height="24" version="1.1"><metadata id="metadata13"/><defs id="defs3"><style id="current-color-scheme" type="text/css">.ColorScheme-Text{color:#444}</style></defs><g id="g7" transform="matrix(1.46684,0,0,1.46684,0.26528,0.26528)"><path id="path5" d="M 5,3 C 0,3 0,8 0,8 0,8 0,13 5,13 H 7 V 11 H 5 C 2,11 2,8 2,8 2,8 2,5 5,5 H 7 V 3 Z m 4,0 v 2 h 2 c 3,0 3,3 3,3 0,0 0,3 -3,3 H 9 v 2 h 2 c 5,0 5,-5 5,-5 0,0 0,-5 -5,-5 z M 5,7 v 2 h 6 V 7 Z" class="ColorScheme-Text" style="fill:currentColor"/></g></svg>