<svg xmlns="http://www.w3.org/2000/svg" xmlns:svg="http://www.w3.org/2000/svg" id="svg24" width="64" height="64" version="1.1"><metadata id="metadata30"/><path style="fill:#ccc;stroke-width:1.425" id="path4" d="M 32,3.5 A 28.5,28.5 0 0 0 3.5000002,32 28.5,28.5 0 0 0 32,60.5 28.5,28.5 0 0 0 60.5,32 28.5,28.5 0 0 0 32,3.5 Z m 0,7.125 A 21.375,21.375 0 0 1 53.375,32 21.375,21.375 0 0 1 32,53.374999 21.375,21.375 0 0 1 27.065381,52.773829 11.4,11.4 0 0 0 32,43.399999 11.4,11.4 0 0 0 20.600001,32 11.4,11.4 0 0 0 11.226172,36.91792 21.375,21.375 0 0 1 10.625,32 21.375,21.375 0 0 1 32,10.625 Z"/></svg>