<svg xmlns="http://www.w3.org/2000/svg" xmlns:svg="http://www.w3.org/2000/svg" id="svg24" width="64" height="64" version="1.1"><metadata id="metadata30"/><g id="g840" transform="matrix(1.425,0,0,1.425,-2.2,-2.2)"><path id="path834" d="M 24,10.049411 A 13.950405,13.950405 0 0 0 10.049411,24 13.950405,13.950405 0 0 0 24,37.950589 13.950405,13.950405 0 0 0 37.950589,24 13.950405,13.950405 0 0 0 24,10.049411 Z m 5.010087,4.764862 A 10.462942,10.462942 0 0 1 34.462941,24 h -6.975294 a 3.4876472,3.4876472 0 0 1 -1.46454,2.833713 l 4.049622,5.670833 A 10.462942,10.462942 0 0 1 24,34.462941 10.462942,10.462942 0 0 1 17.923864,32.507951 l 4.049622,-5.674238 A 3.4876472,3.4876472 0 0 1 20.512353,24 h -6.975295 a 10.462942,10.462942 0 0 1 5.45626,-9.17551 l 3.337789,6.117007 A 3.4876472,3.4876472 0 0 1 24,20.512353 a 3.4876472,3.4876472 0 0 1 1.668893,0.425738 3.4876472,3.4876472 0 0 1 0.0034,0 z M 24,22.256176 A 1.7438236,1.7438236 0 0 0 22.256176,24 1.7438236,1.7438236 0 0 0 24,25.743823 1.7438236,1.7438236 0 0 0 25.743823,24 1.7438236,1.7438236 0 0 0 24,22.256176 Z" style="fill:#ccc;fill-opacity:1;stroke:none;stroke-width:1.74382;stroke-miterlimit:4;stroke-dasharray:none;stroke-opacity:1"/><path id="path10" d="M 24,4 A 20,20 0 0 0 4,24 20,20 0 0 0 24,44 20,20 0 0 0 44,24 20,20 0 0 0 24,4 Z m 0,4 A 16,16 0 0 1 40,24 16,16 0 0 1 24,40 16,16 0 0 1 8,24 16,16 0 0 1 24,8 Z" style="fill:#ccc"/></g></svg>