<svg xmlns="http://www.w3.org/2000/svg" xmlns:svg="http://www.w3.org/2000/svg" xmlns:xlink="http://www.w3.org/1999/xlink" id="svg2" width="489.787" height="489.787" version="1.1"><metadata id="metadata8"/><defs id="defs6"><linearGradient id="linearGradient3764" x1="1" x2="47" gradientTransform="rotate(-90,23.999998,24)" gradientUnits="userSpaceOnUse"><stop id="stop7" stop-color="#e4e4e4" stop-opacity="1"/><stop id="stop9" offset="1" stop-color="#eee" stop-opacity="1"/></linearGradient><clipPath id="clipPath-365326813"><g id="g12" transform="translate(0,-1004.3622)"><path id="path14" d="m -24,13 c 0,1.105 -0.672,2 -1.5,2 -0.828,0 -1.5,-0.895 -1.5,-2 0,-1.105 0.672,-2 1.5,-2 0.828,0 1.5,0.895 1.5,2 z" transform="matrix(15.333333,0,0,11.5,414.99999,878.8622)" style="fill:#1890d0"/></g></clipPath><clipPath id="clipPath-370729992"><g id="g17" transform="translate(0,-1004.3622)"><path id="path19" d="m -24,13 c 0,1.105 -0.672,2 -1.5,2 -0.828,0 -1.5,-0.895 -1.5,-2 0,-1.105 0.672,-2 1.5,-2 0.828,0 1.5,0.895 1.5,2 z" transform="matrix(15.333333,0,0,11.5,414.99999,878.8622)" style="fill:#1890d0"/></g></clipPath><defs id="defs5"><rect id="SVGID_1_" width="1024" height="1024" x="0" y="0"/></defs><clipPath id="SVGID_2_"><use id="use9" width="100%" height="100%" x="0" y="0" overflow="visible" xlink:href="#SVGID_1_" style="overflow:visible"/></clipPath><defs id="defs38"><rect id="SVGID_8_" width="1024" height="1024" x="0" y="0"/></defs><clipPath id="SVGID_9_"><use id="use42" width="100%" height="100%" x="0" y="0" overflow="visible" xlink:href="#SVGID_8_" style="overflow:visible"/></clipPath><defs id="defs44"><filter id="Adobe_OpacityMaskFilter" width="413.934" height="413.967" x="305.033" y="293.442" filterUnits="userSpaceOnUse"><feFlood id="feFlood47" result="back"/><feBlend id="feBlend49" in="SourceGraphic" in2="back" mode="normal"/></filter></defs><mask id="SVGID_10_" width="413.934" height="413.967" x="305.033" y="293.442" maskUnits="userSpaceOnUse"><g id="g52" style="filter:url(#Adobe_OpacityMaskFilter)"><g id="g54"><g id="g56"><defs id="defs58"><path id="SVGID_11_" d="m 513.458,309.257 c 91.063,0 164.903,76.897 164.903,171.722 0,94.833 -73.84,171.727 -164.903,171.727 -91.047,0 -164.89,-76.894 -164.89,-171.727 0,-94.825 73.843,-171.722 164.89,-171.722"/></defs><clipPath id="SVGID_12_" clip-path="url(#SVGID_9_)"><use id="use62" width="100%" height="100%" x="0" y="0" overflow="visible" xlink:href="#SVGID_11_" style="overflow:visible"/></clipPath><linearGradient id="SVGID_13_" x1="0" x2="1" y1="1024" y2="1024" gradientTransform="matrix(-10.9559,383.4525,383.4525,10.9559,-392132.59,-11061.132)" gradientUnits="userSpaceOnUse"><stop style="stop-color:#1c1b18" id="stop65" offset="0"/><stop style="stop-color:#4b4846" id="stop67" offset=".187"/><stop style="stop-color:#7f7b79" id="stop69" offset=".368"/><stop style="stop-color:#b0adad" id="stop71" offset=".534"/><stop style="stop-color:#d9d8d8" id="stop73" offset=".682"/><stop style="stop-color:#f5f5f5" id="stop75" offset=".807"/><stop style="stop-color:#fff" id="stop77" offset=".894"/><stop style="stop-color:#fff" id="stop79" offset="1"/></linearGradient><polygon id="polygon81" points="348.837 299.842 688.166 309.537 678.092 662.121 338.763 652.426" clip-path="url(#SVGID_12_)" style="fill:url(#SVGID_13_)"/></g></g></g></mask><filter style="color-interpolation-filters:sRGB" id="filter139"><feFlood id="feFlood129" flood-color="#000" flood-opacity=".498" result="flood"/><feComposite id="feComposite131" in="flood" in2="SourceGraphic" operator="in" result="composite1"/><feGaussianBlur id="feGaussianBlur133" in="composite1" result="blur" stdDeviation="3"/><feOffset id="feOffset135" dx="2" dy="2" result="offset"/><feComposite id="feComposite137" in="SourceGraphic" in2="offset" operator="over" result="composite2"/></filter></defs><g id="g5064" transform="translate(-11.106552,-11.106552)" style="stroke:#b7c4c8;stroke-opacity:1"><circle id="path77-3" cx="256" cy="256" r="229.945" style="fill:#00aad4;fill-opacity:1;stroke-width:1.21617174;stroke:#b7c4c8;stroke-opacity:1"/><path id="path77" d="M 256.00053,26.053559 C 129.00417,26.052855 26.053094,129.00393 26.053796,256.00029 26.054404,382.99573 129.00509,485.94535 256.00053,485.94465 382.99504,485.94404 485.94427,382.9948 485.94488,256.00029 485.94558,129.00486 382.99596,26.054172 256.00053,26.053559 Z M 133.75389,137.96986 h 101.17029 c 6.98434,0 12.6439,5.66194 12.6439,12.64629 v 75.85872 c -10.19734,2.92055 -18.16621,10.89571 -21.07872,21.09535 h -92.73547 c -6.98436,0 -12.64629,-5.66194 -12.64629,-12.64628 v -84.30779 c 0,-6.98435 5.66193,-12.64629 12.64629,-12.64629 z m 143.323,0 h 101.1679 c 6.98434,0 12.64629,5.66194 12.64629,12.64629 v 84.30779 c 0,6.98434 -5.66195,12.64628 -12.64629,12.64628 h -92.71884 c -2.91984,-10.19826 -10.89512,-18.16815 -21.09535,-21.0811 v -75.87297 c 0,-6.98435 5.66193,-12.64629 12.64629,-12.64629 z m -143.32304,126.4605 h 92.71884 c 2.92055,10.19735 10.89571,18.16623 21.09536,21.07873 v 75.87534 c 0,6.98435 -5.65957,12.64629 -12.64391,12.64629 H 133.75385 c -6.98435,0 -12.64629,-5.66194 -12.64629,-12.64629 v -84.30779 c 0,-6.98435 5.66194,-12.64628 12.64629,-12.64628 z m 151.75544,0 h 92.73547 c 6.98434,-1e-5 12.64629,5.66193 12.64629,12.64628 v 84.30779 c 0,6.98435 -5.66195,12.64629 -12.64629,12.64629 H 277.07685 c -6.98435,0 -12.64629,-5.66194 -12.64629,-12.64629 v -75.85872 c 10.19735,-2.92055 18.16622,-10.8957 21.07873,-21.09535 z" style="fill:#383a3c;fill-opacity:1;stroke:#b7c4c8;stroke-width:1.21617174;stroke-opacity:1"/><path id="path79" d="m 256.00001,229.32457 a 26.674922,26.674922 0 0 0 -26.67543,26.67542 26.674922,26.674922 0 0 0 26.67543,26.67542 26.674922,26.674922 0 0 0 26.67541,-26.67542 26.674922,26.674922 0 0 0 -26.67541,-26.67542 z m -1.39245,11.94425 c 4.54863,0 7.75636,1.62724 10.34188,5.26614 v -4.64351 h 3.54334 v 26.18967 h -3.54334 v -4.59616 c -2.77704,3.73466 -5.65025,5.21879 -10.1031,5.21879 -8.04387,0 -14.02828,-5.84096 -14.02828,-13.64543 0,-7.85234 5.93716,-13.7895 13.7895,-13.7895 z m 0.0957,3.25518 c -5.69774,0 -10.29453,4.59679 -10.29453,10.29453 0,5.98503 4.54881,10.629 10.48595,10.629 5.64986,0 10.05474,-4.64349 10.05474,-10.58063 0,-5.84138 -4.50054,-10.3429 -10.24616,-10.3429 z" style="fill:#b7c4c8;fill-opacity:1;stroke-width:.52692223;stroke:#b7c4c8;stroke-opacity:1"/><circle id="path4854" cx="256" cy="256" r="237.393" style="fill:none;fill-opacity:1;stroke:#b7c4c8;stroke-width:15;stroke-miterlimit:4;stroke-dasharray:none;stroke-opacity:1"/></g></svg>