<svg xmlns="http://www.w3.org/2000/svg" xmlns:svg="http://www.w3.org/2000/svg" xmlns:xlink="http://www.w3.org/1999/xlink" id="svg2" width="489.787" height="489.787" version="1.1"><metadata id="metadata8"/><defs id="defs6"><linearGradient id="linearGradient3764" x1="1" x2="47" gradientTransform="rotate(-90,23.999998,24)" gradientUnits="userSpaceOnUse"><stop id="stop7" stop-color="#e4e4e4" stop-opacity="1"/><stop id="stop9" offset="1" stop-color="#eee" stop-opacity="1"/></linearGradient><clipPath id="clipPath-365326813"><g id="g12" transform="translate(0,-1004.3622)"><path style="fill:#1890d0" id="path14" d="m -24,13 c 0,1.105 -0.672,2 -1.5,2 -0.828,0 -1.5,-0.895 -1.5,-2 0,-1.105 0.672,-2 1.5,-2 0.828,0 1.5,0.895 1.5,2 z" transform="matrix(15.333333,0,0,11.5,414.99999,878.8622)"/></g></clipPath><clipPath id="clipPath-370729992"><g id="g17" transform="translate(0,-1004.3622)"><path style="fill:#1890d0" id="path19" d="m -24,13 c 0,1.105 -0.672,2 -1.5,2 -0.828,0 -1.5,-0.895 -1.5,-2 0,-1.105 0.672,-2 1.5,-2 0.828,0 1.5,0.895 1.5,2 z" transform="matrix(15.333333,0,0,11.5,414.99999,878.8622)"/></g></clipPath><defs id="defs5"><rect id="SVGID_1_" width="1024" height="1024" x="0" y="0"/></defs><clipPath id="SVGID_2_"><use id="use9" width="100%" height="100%" x="0" y="0" overflow="visible" xlink:href="#SVGID_1_" style="overflow:visible"/></clipPath><defs id="defs38"><rect id="SVGID_8_" width="1024" height="1024" x="0" y="0"/></defs><clipPath id="SVGID_9_"><use style="overflow:visible" id="use42" width="100%" height="100%" x="0" y="0" overflow="visible" xlink:href="#SVGID_8_"/></clipPath><defs id="defs44"><filter id="Adobe_OpacityMaskFilter" width="413.934" height="413.967" x="305.033" y="293.442" filterUnits="userSpaceOnUse"><feFlood id="feFlood47" result="back"/><feBlend id="feBlend49" in="SourceGraphic" in2="back" mode="normal"/></filter></defs><mask id="SVGID_10_" width="413.934" height="413.967" x="305.033" y="293.442" maskUnits="userSpaceOnUse"><g style="filter:url(#Adobe_OpacityMaskFilter)" id="g52"><g id="g54"><g id="g56"><defs id="defs58"><path id="SVGID_11_" d="m 513.458,309.257 c 91.063,0 164.903,76.897 164.903,171.722 0,94.833 -73.84,171.727 -164.903,171.727 -91.047,0 -164.89,-76.894 -164.89,-171.727 0,-94.825 73.843,-171.722 164.89,-171.722"/></defs><clipPath id="SVGID_12_" clip-path="url(#SVGID_9_)"><use style="overflow:visible" id="use62" width="100%" height="100%" x="0" y="0" overflow="visible" xlink:href="#SVGID_11_"/></clipPath><linearGradient id="SVGID_13_" x1="0" x2="1" y1="1024" y2="1024" gradientTransform="matrix(-10.9559,383.4525,383.4525,10.9559,-392132.59,-11061.132)" gradientUnits="userSpaceOnUse"><stop id="stop65" offset="0" style="stop-color:#1c1b18"/><stop id="stop67" offset=".187" style="stop-color:#4b4846"/><stop id="stop69" offset=".368" style="stop-color:#7f7b79"/><stop id="stop71" offset=".534" style="stop-color:#b0adad"/><stop id="stop73" offset=".682" style="stop-color:#d9d8d8"/><stop id="stop75" offset=".807" style="stop-color:#f5f5f5"/><stop id="stop77" offset=".894" style="stop-color:#fff"/><stop id="stop79" offset="1" style="stop-color:#fff"/></linearGradient><polygon style="fill:url(#SVGID_13_)" id="polygon81" points="348.837 299.842 688.166 309.537 678.092 662.121 338.763 652.426" clip-path="url(#SVGID_12_)"/></g></g></g></mask><filter id="filter139" style="color-interpolation-filters:sRGB"><feFlood id="feFlood129" flood-color="#000" flood-opacity=".498" result="flood"/><feComposite id="feComposite131" in="flood" in2="SourceGraphic" operator="in" result="composite1"/><feGaussianBlur id="feGaussianBlur133" in="composite1" result="blur" stdDeviation="3"/><feOffset id="feOffset135" dx="2" dy="2" result="offset"/><feComposite id="feComposite137" in="SourceGraphic" in2="offset" operator="over" result="composite2"/></filter></defs><g id="g5263" transform="translate(-11.106552,-11.106552)" style="stroke:#b7c4c8;stroke-opacity:1"><circle style="fill:#00aad4;fill-opacity:1;stroke-width:1.21617174;stroke:#b7c4c8;stroke-opacity:1" id="path77-3" cx="256" cy="256" r="229.945"/><rect style="fill:#b7c4c8;fill-opacity:1;stroke-width:1.21617174;stroke:#b7c4c8;stroke-opacity:1" id="rect121" width="168.203" height="272.158" x="181.627" y="119.92"/><path style="fill:#383a3c;fill-opacity:1;stroke-width:1.21617174;stroke:#b7c4c8;stroke-opacity:1" id="path77" d="M 256.00053,26.053559 A 229.94546,229.94546 0 0 0 26.053796,256.00029 229.94546,229.94546 0 0 0 256.00053,485.94465 229.94546,229.94546 0 0 0 485.94488,256.00029 229.94546,229.94546 0 0 0 256.00053,26.053559 Z M 120.21922,135.30475 h 271.56261 c 8.33073,0 15.08576,10.81137 15.08576,24.14053 V 352.5553 c 0,13.32917 -6.75503,24.13817 -15.08576,24.13817 H 120.21922 c -8.33073,0 -15.08575,-10.809 -15.08575,-24.13817 V 159.44528 c 0,-13.32916 6.75502,-24.14053 15.08575,-24.14053 z m 22.62982,48.27868 c -4.16773,0 -7.54406,5.40074 -7.54406,12.06909 v 36.20961 c 0,6.66836 3.37635,12.06909 7.54406,12.06909 h 98.06336 c 4.16772,0 7.54406,-5.40073 7.54406,-12.06909 v -36.20961 c 0,-6.66835 -3.37634,-12.06909 -7.54406,-12.06909 z m 182.7607,1.34207 c -10.44143,0 -18.33759,7.89835 -18.33759,18.34471 0,10.38268 7.95741,18.1547 18.6535,18.1547 5.92105,0 9.7422,-1.97472 13.43491,-6.94311 v 6.11412 h 4.71266 V 185.7545 h -4.71266 v 6.17825 c -3.43803,-4.841 -7.70243,-7.00725 -13.75082,-7.00725 z m 0.12589,4.33024 c 7.64007,0 13.62493,5.98924 13.62493,13.76032 0,7.89846 -5.85803,14.07624 -13.37076,14.07624 -7.89474,0 -13.94323,-6.17821 -13.94323,-14.14038 0,-7.57999 6.11266,-13.69618 13.68906,-13.69618 z m -182.88659,72.78027 c -2.08385,2e-5 -3.77203,2.69919 -3.77203,6.03336 v 12.06908 c 0,3.33417 1.68818,6.03573 3.77203,6.03573 h 7.54407 c 2.08386,0 3.77203,-2.70156 3.77203,-6.03573 v -12.06908 c 0,-3.33417 -1.68817,-6.03336 -3.77203,-6.03336 z m 30.17389,0 c -2.08385,2e-5 -3.77203,2.69919 -3.77203,6.03336 v 12.06908 c 0,3.33417 1.68818,6.03573 3.77203,6.03573 h 7.54407 c 2.08386,0 3.76966,-2.70156 3.76966,-6.03573 v -12.06908 c 0,-3.33417 -1.6858,-6.03336 -3.76966,-6.03336 z m 30.17389,0 c -2.08386,2e-5 -3.77203,2.69919 -3.77203,6.03336 v 12.06908 c 0,3.33417 1.68817,6.03573 3.77203,6.03573 h 7.54406 c 2.08385,0 3.76966,-2.70156 3.76966,-6.03573 v -12.06908 c 0,-3.33417 -1.68581,-6.03336 -3.76966,-6.03336 z m 30.17389,0 c -2.08386,2e-5 -3.77204,2.69919 -3.77204,6.03336 v 12.06908 c 0,3.33417 1.68818,6.03573 3.77204,6.03573 h 7.54169 c 2.08386,0 3.77203,-2.70156 3.77203,-6.03573 v -12.06908 c 0,-3.33417 -1.68817,-6.03336 -3.77203,-6.03336 z m -94.2937,54.31206 c -2.08386,0 -3.77203,2.69917 -3.77203,6.03335 v 6.03573 c 0,3.33417 1.68817,6.03334 3.77203,6.03334 h 105.60742 c 2.08386,0 3.77203,-2.69917 3.77203,-6.03334 v -6.03573 c 0,-3.33418 -1.68817,-6.03335 -3.77203,-6.03335 z m 128.23724,0 c -2.08386,0 -3.77203,2.69917 -3.77203,6.03335 v 6.03573 c 0,3.33417 1.68817,6.03334 3.77203,6.03334 h 105.60742 c 2.08385,0 3.77203,-2.69917 3.77203,-6.03334 v -6.03573 c 0,-3.33418 -1.68818,-6.03335 -3.77203,-6.03335 z"/><circle id="path4854" cx="256" cy="256" r="237.393" style="fill:none;fill-opacity:1;stroke:#b7c4c8;stroke-width:15;stroke-miterlimit:4;stroke-dasharray:none;stroke-opacity:1"/></g></svg>