<svg xmlns="http://www.w3.org/2000/svg" xmlns:svg="http://www.w3.org/2000/svg" xmlns:xlink="http://www.w3.org/1999/xlink" id="svg2" width="489.787" height="489.787" version="1.1"><metadata id="metadata8"/><defs id="defs6"><linearGradient id="linearGradient3764" x1="1" x2="47" gradientTransform="rotate(-90,23.999998,24)" gradientUnits="userSpaceOnUse"><stop id="stop7" stop-color="#e4e4e4" stop-opacity="1"/><stop id="stop9" offset="1" stop-color="#eee" stop-opacity="1"/></linearGradient><clipPath id="clipPath-365326813"><g id="g12" transform="translate(0,-1004.3622)"><path style="fill:#1890d0" id="path14" d="m -24,13 c 0,1.105 -0.672,2 -1.5,2 -0.828,0 -1.5,-0.895 -1.5,-2 0,-1.105 0.672,-2 1.5,-2 0.828,0 1.5,0.895 1.5,2 z" transform="matrix(15.333333,0,0,11.5,414.99999,878.8622)"/></g></clipPath><clipPath id="clipPath-370729992"><g id="g17" transform="translate(0,-1004.3622)"><path style="fill:#1890d0" id="path19" d="m -24,13 c 0,1.105 -0.672,2 -1.5,2 -0.828,0 -1.5,-0.895 -1.5,-2 0,-1.105 0.672,-2 1.5,-2 0.828,0 1.5,0.895 1.5,2 z" transform="matrix(15.333333,0,0,11.5,414.99999,878.8622)"/></g></clipPath><defs id="defs5"><rect id="SVGID_1_" width="1024" height="1024" x="0" y="0"/></defs><clipPath id="SVGID_2_"><use id="use9" width="100%" height="100%" x="0" y="0" overflow="visible" xlink:href="#SVGID_1_" style="overflow:visible"/></clipPath><defs id="defs38"><rect id="SVGID_8_" width="1024" height="1024" x="0" y="0"/></defs><clipPath id="SVGID_9_"><use style="overflow:visible" id="use42" width="100%" height="100%" x="0" y="0" overflow="visible" xlink:href="#SVGID_8_"/></clipPath><defs id="defs44"><filter id="Adobe_OpacityMaskFilter" width="413.934" height="413.967" x="305.033" y="293.442" filterUnits="userSpaceOnUse"><feFlood id="feFlood47" result="back"/><feBlend id="feBlend49" in="SourceGraphic" in2="back" mode="normal"/></filter></defs><mask id="SVGID_10_" width="413.934" height="413.967" x="305.033" y="293.442" maskUnits="userSpaceOnUse"><g style="filter:url(#Adobe_OpacityMaskFilter)" id="g52"><g id="g54"><g id="g56"><defs id="defs58"><path id="SVGID_11_" d="m 513.458,309.257 c 91.063,0 164.903,76.897 164.903,171.722 0,94.833 -73.84,171.727 -164.903,171.727 -91.047,0 -164.89,-76.894 -164.89,-171.727 0,-94.825 73.843,-171.722 164.89,-171.722"/></defs><clipPath id="SVGID_12_" clip-path="url(#SVGID_9_)"><use style="overflow:visible" id="use62" width="100%" height="100%" x="0" y="0" overflow="visible" xlink:href="#SVGID_11_"/></clipPath><linearGradient id="SVGID_13_" x1="0" x2="1" y1="1024" y2="1024" gradientTransform="matrix(-10.9559,383.4525,383.4525,10.9559,-392132.59,-11061.132)" gradientUnits="userSpaceOnUse"><stop id="stop65" offset="0" style="stop-color:#1c1b18"/><stop id="stop67" offset=".187" style="stop-color:#4b4846"/><stop id="stop69" offset=".368" style="stop-color:#7f7b79"/><stop id="stop71" offset=".534" style="stop-color:#b0adad"/><stop id="stop73" offset=".682" style="stop-color:#d9d8d8"/><stop id="stop75" offset=".807" style="stop-color:#f5f5f5"/><stop id="stop77" offset=".894" style="stop-color:#fff"/><stop id="stop79" offset="1" style="stop-color:#fff"/></linearGradient><polygon style="fill:url(#SVGID_13_)" id="polygon81" points="348.837 299.842 688.166 309.537 678.092 662.121 338.763 652.426" clip-path="url(#SVGID_12_)"/></g></g></g></mask><filter id="filter139" style="color-interpolation-filters:sRGB"><feFlood id="feFlood129" flood-color="#000" flood-opacity=".498" result="flood"/><feComposite id="feComposite131" in="flood" in2="SourceGraphic" operator="in" result="composite1"/><feGaussianBlur id="feGaussianBlur133" in="composite1" result="blur" stdDeviation="3"/><feOffset id="feOffset135" dx="2" dy="2" result="offset"/><feComposite id="feComposite137" in="SourceGraphic" in2="offset" operator="over" result="composite2"/></filter></defs><g id="g5474" transform="translate(-11.106552,-11.106552)" style="stroke:#b7c4c8;stroke-opacity:1"><circle style="fill:#00aad4;fill-opacity:1;stroke-width:1.21617174;stroke:#b7c4c8;stroke-opacity:1" id="path77-3" cx="256" cy="256" r="229.945"/><rect style="fill:#53676c;fill-opacity:1;stroke-width:1.21617174;stroke:#b7c4c8;stroke-opacity:1" id="rect96-0" width="128.626" height="128.626" x="261.882" y="102.067"/><rect style="fill:#b7c4c8;fill-opacity:1;stroke-width:1.21617174;stroke:#b7c4c8;stroke-opacity:1" id="rect96" width="128.626" height="128.626" x="124.599" y="102.067"/><path style="fill:#383a3c;fill-opacity:1;stroke-width:1.21617174;stroke:#b7c4c8;stroke-opacity:1" id="path77" d="M 256.00053,26.053559 A 229.94546,229.94546 0 0 0 26.053796,256.00029 229.94546,229.94546 0 0 0 256.00053,485.94465 229.94546,229.94546 0 0 0 485.94488,256.00029 229.94546,229.94546 0 0 0 256.00053,26.053559 Z m -17.97417,86.148661 h 8.9859 v 107.84974 h -98.8591 v -17.97654 a 89.873037,89.873037 0 0 1 89.8732,-89.8732 z m 26.96006,0 h 8.98827 a 89.873037,89.873037 0 0 1 89.8732,89.8732 v 17.97654 H 264.98642 Z M 148.15316,238.02613 h 215.69473 v 71.89665 a 89.873037,89.873037 0 0 1 -89.8732,89.8732 h -35.94833 a 89.873037,89.873037 0 0 1 -89.8732,-89.8732 z m 107.79274,70.34318 c -8.86398,0 -15.56558,6.7016 -15.56558,15.56558 0,8.80992 6.75619,15.40404 15.83636,15.40404 5.02652,0 8.26915,-1.67502 11.404,-5.89082 v 5.18773 h 4.00006 v -29.56342 h -4.00006 v 5.24236 c -2.91865,-4.10771 -6.54016,-5.94547 -11.67478,-5.94547 z m 0.1069,3.67703 c 6.48585,0 11.56789,5.07846 11.56789,11.6724 0,6.70201 -4.97401,11.94555 -11.35174,11.94555 -6.70203,0 -11.83629,-5.24172 -11.83629,-11.99781 0,-6.43179 5.18836,-11.62014 11.62014,-11.62014 z"/><circle id="path4854" cx="256" cy="256" r="237.393" style="fill:none;fill-opacity:1;stroke:#b7c4c8;stroke-width:15;stroke-miterlimit:4;stroke-dasharray:none;stroke-opacity:1"/></g></svg>